<svg width="694" height="179" viewBox="0 0 694 179" fill="none" xmlns="http://www.w3.org/2000/svg">
<path fill-rule="evenodd" clip-rule="evenodd" d="M155 49.25L85.5 9L16 49.25V129.75L39.1667 143.167L39.1667 62.6667L85.5 35.8333L131.833 62.6667V116.333L108.667 104.258V76.0833L85.5 62.6667L62.3333 76.0833V156.583L85.5 170L155 129.75V49.25Z" fill="white"/>
<path d="M211.068 124.5V54.6818H238.614C243.886 54.6818 248.386 55.625 252.114 57.5114C255.864 59.375 258.716 62.0227 260.67 65.4545C262.648 68.8636 263.636 72.875 263.636 77.4886C263.636 82.125 262.636 86.1136 260.636 89.4545C258.636 92.7727 255.739 95.3182 251.943 97.0909C248.17 98.8636 243.602 99.75 238.239 99.75H219.795V87.8864H235.852C238.67 87.8864 241.011 87.5 242.875 86.7273C244.739 85.9545 246.125 84.7955 247.034 83.25C247.966 81.7045 248.432 79.7841 248.432 77.4886C248.432 75.1705 247.966 73.2159 247.034 71.625C246.125 70.0341 244.727 68.8295 242.841 68.0114C240.977 67.1705 238.625 66.75 235.784 66.75H225.83V124.5H211.068ZM248.773 92.7273L266.125 124.5H249.83L232.852 92.7273H248.773ZM288.727 125.489C285.386 125.489 282.409 124.909 279.795 123.75C277.182 122.568 275.114 120.83 273.591 118.534C272.091 116.216 271.341 113.33 271.341 109.875C271.341 106.966 271.875 104.523 272.943 102.545C274.011 100.568 275.466 98.9773 277.307 97.7727C279.148 96.5682 281.239 95.6591 283.58 95.0455C285.943 94.4318 288.42 94 291.011 93.75C294.057 93.4318 296.511 93.1364 298.375 92.8636C300.239 92.5682 301.591 92.1364 302.432 91.5682C303.273 91 303.693 90.1591 303.693 89.0455V88.8409C303.693 86.6818 303.011 85.0114 301.648 83.8295C300.307 82.6477 298.398 82.0568 295.92 82.0568C293.307 82.0568 291.227 82.6364 289.682 83.7955C288.136 84.9318 287.114 86.3636 286.614 88.0909L273.182 87C273.864 83.8182 275.205 81.0682 277.205 78.75C279.205 76.4091 281.784 74.6136 284.943 73.3636C288.125 72.0909 291.807 71.4545 295.989 71.4545C298.898 71.4545 301.682 71.7955 304.341 72.4773C307.023 73.1591 309.398 74.2159 311.466 75.6477C313.557 77.0795 315.205 78.9205 316.409 81.1705C317.614 83.3977 318.216 86.0682 318.216 89.1818V124.5H304.443V117.239H304.034C303.193 118.875 302.068 120.318 300.659 121.568C299.25 122.795 297.557 123.761 295.58 124.466C293.602 125.148 291.318 125.489 288.727 125.489ZM292.886 115.466C295.023 115.466 296.909 115.045 298.545 114.205C300.182 113.341 301.466 112.182 302.398 110.727C303.33 109.273 303.795 107.625 303.795 105.784V100.227C303.341 100.523 302.716 100.795 301.92 101.045C301.148 101.273 300.273 101.489 299.295 101.693C298.318 101.875 297.341 102.045 296.364 102.205C295.386 102.341 294.5 102.466 293.705 102.58C292 102.83 290.511 103.227 289.239 103.773C287.966 104.318 286.977 105.057 286.273 105.989C285.568 106.898 285.216 108.034 285.216 109.398C285.216 111.375 285.932 112.886 287.364 113.932C288.818 114.955 290.659 115.466 292.886 115.466ZM348.778 125.352C344.801 125.352 341.199 124.33 337.972 122.284C334.767 120.216 332.222 117.182 330.335 113.182C328.472 109.159 327.54 104.227 327.54 98.3864C327.54 92.3864 328.506 87.3977 330.438 83.4205C332.369 79.4205 334.938 76.4318 338.142 74.4545C341.369 72.4545 344.903 71.4545 348.744 71.4545C351.676 71.4545 354.119 71.9545 356.074 72.9545C358.051 73.9318 359.642 75.1591 360.847 76.6364C362.074 78.0909 363.006 79.5227 363.642 80.9318H364.085V54.6818H378.574V124.5H364.256V116.114H363.642C362.96 117.568 361.994 119.011 360.744 120.443C359.517 121.852 357.915 123.023 355.938 123.955C353.983 124.886 351.597 125.352 348.778 125.352ZM353.381 113.795C355.722 113.795 357.699 113.159 359.312 111.886C360.949 110.591 362.199 108.784 363.062 106.466C363.949 104.148 364.392 101.432 364.392 98.3182C364.392 95.2045 363.96 92.5 363.097 90.2045C362.233 87.9091 360.983 86.1364 359.347 84.8864C357.71 83.6364 355.722 83.0114 353.381 83.0114C350.994 83.0114 348.983 83.6591 347.347 84.9545C345.71 86.25 344.472 88.0455 343.631 90.3409C342.79 92.6364 342.369 95.2955 342.369 98.3182C342.369 101.364 342.79 104.057 343.631 106.398C344.494 108.716 345.733 110.534 347.347 111.852C348.983 113.148 350.994 113.795 353.381 113.795ZM390.514 124.5V72.1364H405.037V124.5H390.514ZM397.81 65.3864C395.651 65.3864 393.798 64.6705 392.253 63.2386C390.73 61.7841 389.969 60.0455 389.969 58.0227C389.969 56.0227 390.73 54.3068 392.253 52.875C393.798 51.4205 395.651 50.6932 397.81 50.6932C399.969 50.6932 401.81 51.4205 403.332 52.875C404.878 54.3068 405.651 56.0227 405.651 58.0227C405.651 60.0455 404.878 61.7841 403.332 63.2386C401.81 64.6705 399.969 65.3864 397.81 65.3864ZM428.807 72.1364L438.42 90.4432L448.273 72.1364H463.17L448 98.3182L463.58 124.5H448.75L438.42 106.398L428.261 124.5H413.261L428.807 98.3182L413.807 72.1364H428.807ZM506.901 54.6818L523.776 107.727H524.423L541.332 54.6818H557.696L533.628 124.5H514.605L490.503 54.6818H506.901ZM599.406 102.205V72.1364H613.929V124.5H599.986V114.989H599.44C598.259 118.057 596.293 120.523 593.543 122.386C590.815 124.25 587.486 125.182 583.554 125.182C580.054 125.182 576.974 124.386 574.315 122.795C571.656 121.205 569.577 118.943 568.077 116.011C566.599 113.08 565.849 109.568 565.827 105.477V72.1364H580.349V102.886C580.372 105.977 581.202 108.42 582.838 110.216C584.474 112.011 586.668 112.909 589.418 112.909C591.168 112.909 592.804 112.511 594.327 111.716C595.849 110.898 597.077 109.693 598.009 108.102C598.963 106.511 599.429 104.545 599.406 102.205ZM649.409 125.523C644.023 125.523 639.386 124.432 635.5 122.25C631.636 120.045 628.659 116.932 626.568 112.909C624.477 108.864 623.432 104.08 623.432 98.5568C623.432 93.1705 624.477 88.4432 626.568 84.375C628.659 80.3068 631.602 77.1364 635.398 74.8636C639.216 72.5909 643.693 71.4545 648.83 71.4545C652.284 71.4545 655.5 72.0114 658.477 73.125C661.477 74.2159 664.091 75.8636 666.318 78.0682C668.568 80.2727 670.318 83.0455 671.568 86.3864C672.818 89.7045 673.443 93.5909 673.443 98.0455V102.034H629.227V93.0341H659.773C659.773 90.9432 659.318 89.0909 658.409 87.4773C657.5 85.8636 656.239 84.6023 654.625 83.6932C653.034 82.7614 651.182 82.2955 649.068 82.2955C646.864 82.2955 644.909 82.8068 643.205 83.8295C641.523 84.8295 640.205 86.1818 639.25 87.8864C638.295 89.5682 637.807 91.4432 637.784 93.5114V102.068C637.784 104.659 638.261 106.898 639.216 108.784C640.193 110.67 641.568 112.125 643.341 113.148C645.114 114.17 647.216 114.682 649.648 114.682C651.261 114.682 652.739 114.455 654.08 114C655.42 113.545 656.568 112.864 657.523 111.955C658.477 111.045 659.205 109.932 659.705 108.614L673.136 109.5C672.455 112.727 671.057 115.545 668.943 117.955C666.852 120.341 664.148 122.205 660.83 123.545C657.534 124.864 653.727 125.523 649.409 125.523Z" fill="white"/>
</svg>
